<svg xmlns="http://www.w3.org/2000/svg" viewBox="0 0 32 32" width="32" height="32">
  <path fill="#000000" d="M8,26h16v2H8V26z M24,24H8v-2h16V24z M24.5,11c0,0.8-0.3,1.5-0.9,2.1c-0.6,0.6-1.3,0.9-2.1,0.9h-1
    c-0.8,2-2.1,3.5-3.9,4.5c-1.8,1-3.8,1.5-5.9,1.5H9v-2h1.7c1.7,0,3.3-0.4,4.8-1.2c1.5-0.8,2.6-2,3.3-3.6l0.4-0.9h1.3
    c0.6,0,1.1-0.2,1.5-0.6c0.4-0.4,0.6-0.9,0.6-1.5c0-0.6-0.2-1.1-0.6-1.5c-0.4-0.4-0.9-0.6-1.5-0.6h-1c-0.2-1.4-0.9-2.6-2-3.6
    C15.4,3.5,14,3,12.5,3C10.9,3,9.5,3.5,8.4,4.6C7.2,5.7,6.6,7,6.6,8.5c0,0.9,0.2,1.7,0.6,2.5c0.4,0.8,1,1.4,1.8,1.9v2.2
    c-1.3-0.7-2.3-1.7-3-3C5.3,11,5,9.8,5,8.5C5,6.5,5.8,4.8,7.3,3.3C8.8,1.8,10.5,1,12.5,1c2,0,3.7,0.8,5.2,2.3
    c1.1,1.1,1.8,2.4,2.1,3.8h0.7c1.1,0,2.1,0.4,2.9,1.2C24.1,8.9,24.5,9.9,24.5,11z"/>
</svg>
